# xmcd CD database file
#
# Track frame offsets:
#	150
#	12122
#	31944
#	51866
#	70348
#	102950
#	125162
#	147264
#	170126
#	190318
#	206730
#	224752
#	288604
#
# Disc length: 4429 seconds
#
# Revision: 1
# Processed by: cddbd v1.4PL0 Copyright (c) Steve Scherf et al.
# Submitted via: CDex 1.50
#
DISCID=d5114b0d
DTITLE=Walter Tore's Spontobeat - Live At the Alpine Hall
DYEAR=2003
DGENRE=Blues
TTITLE0=Hello To You All
TTITLE1=Boogie In B
TTITLE2=Going Home
TTITLE3=Get Out Of Here And Chill
TTITLE4=You Made Me Cry
TTITLE5=Summertime Blues
TTITLE6=Grease Fire In The Pit
TTITLE7=Coming Home
TTITLE8=My Little Dog
TTITLE9=Time To Love Her
TTITLE10=To Earl
TTITLE11=Vocal Story Of The Mojo Guitar
TTITLE12=Good-Bye Harp
EXTD=YEAR: 2003
EXTT0=
EXTT1=
EXTT2=
EXTT3=
EXTT4=
EXTT5=
EXTT6=
EXTT7=
EXTT8=
EXTT9=
EXTT10=
EXTT11=
EXTT12=
PLAYORDER=
